<svg viewBox="0 0 64 64" xmlns="http://www.w3.org/2000/svg" role="img" aria-label="Solanum">
  <!-- five rounded violet petals, evenly spaced so none overlaps the next -->
  <g fill="#7c3aed" stroke="#5b21b6" stroke-width="1.1" stroke-linejoin="round">
    <path d="M32 32 C 24 27 25 12 32 8 C 39 12 40 27 32 32 Z"/>
    <path d="M32 32 C 24 27 25 12 32 8 C 39 12 40 27 32 32 Z" transform="rotate(72 32 32)"/>
    <path d="M32 32 C 24 27 25 12 32 8 C 39 12 40 27 32 32 Z" transform="rotate(144 32 32)"/>
    <path d="M32 32 C 24 27 25 12 32 8 C 39 12 40 27 32 32 Z" transform="rotate(216 32 32)"/>
    <path d="M32 32 C 24 27 25 12 32 8 C 39 12 40 27 32 32 Z" transform="rotate(288 32 32)"/>
  </g>

  <!-- solid yellow centre -->
  <circle cx="32" cy="32" r="6.8" fill="#f3c20d"/>
</svg>
